# xmcd
#
# Track frame offsets: 
#        150
#        13359
#        26288
#        39373
#        51320
#        65032
#        80431
#        93097
#        106272
#        119393
#        133383
#        146236
#        160712
#        172626
#        185980
#        199191
#        211022
#        223694
#        238895
#        251928
#        266377
#
# Disc length: 3706 seconds
#
# Revision: 0
# Processed by: cddbd v1.5.2PL0 Copyright (c) Steve Scherf et al.
# Submitted via: ExactAudioCopy v1.1
#
DISCID=360e7815
DTITLE=Red Foley - The Complete US Country Hits 1944-59_CD1
DYEAR=2014
DGENRE=Country
TTITLE0=Smoke On The Water
TTITLE1=Theres A Blue Star Shining Bright
TTITLE2=Hang Your Head In Shame
TTITLE3=I'll Never Let You Worry My Mind
TTITLE4=Lawrence Welk Champagne Music (voc. Red Foley) - Shame On You
TTITLE5=Lawrence Welk Champagne Music (voc. Red Foley) - At Mail Call 
TTITLE5=Today
TTITLE6=Red Foley with Roy Ross and His Ramblers - Harriet
TTITLE7=Red Foley with Roy Ross and His Ramblers - Have I Told You Latel
TTITLE7=y That I Love You
TTITLE8=Red Foley and The Cumberland Valley Boys - Thats How Much I Lo
TTITLE8=ve You
TTITLE9=Red Foley and The Cumberland Valley Boys - New Jolie Blonde
TTITLE10=Red Foley and The Cumberland Valley Boys - Freight Train Boog
TTITLE10=ie
TTITLE11=Red Foley and The Cumberland Valley Boys - Never Trust A Woma
TTITLE11=n
TTITLE12=Red Foley and The Cumberland Valley Boys - Tennessee Saturday
TTITLE12=Night
TTITLE13=Red Foley and The Cumberland Valley Boys - Blues In My Heart
TTITLE14=Candy Kisses
TTITLE15=Red Foley and The Cumberland Valley Boys - Tennessee Border
TTITLE16=Two Cents, Three Eggs And A Postcard with The Cumberland Vall
TTITLE16=ey
TTITLE17=Tennessee Polka
TTITLE18=I'm Throwing Rice At The Girl I Love
TTITLE19=Sunday Down In Tennessee
TTITLE20=Ernest Tubb and Red Foley - Tennessee Border No. 2
EXTD=
EXTT0=
EXTT1=
EXTT2=
EXTT3=
EXTT4=
EXTT5=
EXTT6=
EXTT7=
EXTT8=
EXTT9=
EXTT10=
EXTT11=
EXTT12=
EXTT13=
EXTT14=
EXTT15=
EXTT16=
EXTT17=
EXTT18=
EXTT19=
EXTT20=
PLAYORDER=
